<svg xmlns="http://www.w3.org/2000/svg" viewBox="0 0 20 20" role="img" aria-label="Slack">
  <path fill="#36c5f0" d="M7.63 5.73q.52 0 .95.26.44.25.69.69.26.43.26.94 0 .52-.26.96a1.9 1.9 0 0 1-.69.69q-.43.25-.95.25H2.9q-.51 0-.95-.25a2 2 0 0 1-.7-.69A1.9 1.9 0 0 1 1 7.62q0-.51.26-.94.26-.44.69-.69.44-.26.95-.26zM7.62 1q.52 0 .95.26.44.25.69.69.26.44.26.95v1.9h-1.9q-.51 0-.95-.25a2 2 0 0 1-.69-.69 1.9 1.9 0 0 1-.25-.96q0-.51.25-.94.26-.44.69-.7.44-.26.95-.26"/>
  <path fill="#f1b900" d="M12.37 15.2q.51 0 .94.26.43.25.68.69.26.43.26.95 0 .51-.26.95a1.8 1.8 0 0 1-.68.69q-.43.26-.94.26-.52 0-.96-.26a1.9 1.9 0 0 1-.69-.69 1.9 1.9 0 0 1-.25-.95v-1.9zm4.73-4.73q.51 0 .95.26.44.25.69.69.26.43.26.95 0 .51-.26.94a1.9 1.9 0 0 1-.69.69q-.44.25-.95.25h-4.73q-.52 0-.96-.25a2 2 0 0 1-.69-.69q-.25-.43-.25-.94 0-.52.25-.95.26-.44.69-.69.44-.26.96-.26z"/>
  <path fill="#e01e5a" d="M7.62 10.47q.52 0 .95.26.44.25.69.69.26.43.26.95v4.73q0 .51-.26.95a1.8 1.8 0 0 1-.69.69q-.43.26-.95.26-.51 0-.95-.26a2 2 0 0 1-.69-.7q-.25-.43-.25-.94v-4.73q0-.52.25-.95.26-.44.69-.69.44-.26.95-.26m-2.82 0v1.9q0 .51-.26.94a1.9 1.9 0 0 1-.69.69q-.43.25-.95.25-.51 0-.95-.25a2 2 0 0 1-.7-.69Q1 12.88 1 12.37a1.86 1.86 0 0 1 .95-1.64q.44-.26.95-.26z"/>
  <path fill="#2eb67d" d="M12.37 1q.51 0 .94.26.43.25.68.69.26.44.26.95v4.73q0 .52-.26.96a1.84 1.84 0 0 1-1.62.94q-.52 0-.96-.25a2 2 0 0 1-.69-.69 1.9 1.9 0 0 1-.25-.96V2.9q0-.51.25-.95.26-.44.69-.69.44-.26.96-.26m4.73 4.73q.51 0 .94.26.44.25.7.69.26.43.26.94 0 .52-.26.96a1.9 1.9 0 0 1-.69.69q-.44.25-.95.25h-1.9v-1.9q0-.51.25-.94.26-.44.69-.69.44-.26.96-.26"/>
</svg>
